<svg width="24" height="24" viewBox="0 0 24 24" fill="none" xmlns="http://www.w3.org/2000/svg">
<path d="M12.9308 16.7C12.9308 17.5705 11.9885 18.1145 11.2346 17.6793C10.4808 17.244 10.4808 16.156 11.2346 15.7207C11.4065 15.6215 11.6015 15.5692 11.8 15.5692C12.4245 15.5692 12.9308 16.0755 12.9308 16.7ZM11.8 6.52308C9.72127 6.52308 8.03077 8.04491 8.03077 9.91538V10.2923C8.03077 10.8726 8.65898 11.2353 9.16154 10.9452C9.39478 10.8105 9.53846 10.5616 9.53846 10.2923V9.91538C9.53846 8.87884 10.5533 8.03077 11.8 8.03077C13.0467 8.03077 14.0615 8.87884 14.0615 9.91538C14.0615 10.9519 13.0467 11.8 11.8 11.8C11.3837 11.8 11.0462 12.1375 11.0462 12.5538V13.3077C11.0462 13.888 11.6744 14.2507 12.1769 13.9605C12.4102 13.8259 12.5538 13.577 12.5538 13.3077V13.2398C14.2726 12.9242 15.5692 11.5531 15.5692 9.91538C15.5692 8.04491 13.8787 6.52308 11.8 6.52308ZM21.6 11.8C21.6 19.344 13.4333 24.0591 6.9 20.287C0.366666 16.515 0.366666 7.08497 6.9 3.31295C8.38979 2.45282 10.0797 2 11.8 2C17.21 2.00572 21.5943 6.38998 21.6 11.8ZM20.0923 11.8C20.0923 5.41658 13.1821 1.42694 7.65385 4.61865C2.12564 7.81036 2.12564 15.7896 7.65385 18.9813C8.91444 19.7091 10.3444 20.0923 11.8 20.0923C16.3776 20.0871 20.0871 16.3776 20.0923 11.8Z" fill="#8E8E93"/>
</svg>
